Patient4_TMGait_0pt3_02_right_19_EMG.mot
version=1
nRows=30
nColumns=33
inDegrees=no
endheader
time	1LAddLong	2LGlutMax	3LGlutMed	4LIliopsoas	5LSemiMemb	6LBicFemLong	7LRecFem	8LVastMed	9LVastLat	10LGasMed	11LTibAnt	12lTibPost	13LPeroneusLong	14LSol	15LExtDigLong	16LFlexDigLong	17RAddLong	18RGlutMax	19RGlutMed	20RIliopsoas	21RSemiMemb	22RBicFemLong	23RRecFem	24RVastMed	25RVastLat	26RGasMed	27RTibAnt	28RTibPost	29RPeroneusLong	30RSol	31RExtDigLong	32RFlexDigLong
38.205	-0.006409	-0.20004	0.059357	0.004425	0.012817	0.073242	-0.060425	0.019531	-0.04303	-0.022888	-0.055847	-0.001526	0.049591	-0.39368	0.030975	0.0177	-0.06546	0.2771	-0.30533	0.11688	-0.00412	-0.0383	-0.014038	-0.081635	-0.016479	0.010376	0.23056	-0.002594	-0.028687	-0.093231	-0.002747	-0.005035
38.206	0.010071	-0.13214	0.060425	0.00061	0.023041	0.025635	-0.15427	0.025482	0.023651	0.065002	-0.055084	0.000916	-0.063324	-0.003357	0.004272	-0.007477	-0.097961	0.26138	-0.2977	0.028687	0.008545	-0.032806	-0.067139	-0.088043	-0.006866	0.005493	0.45517	-0.002747	-0.018311	-0.035095	-0.00061	-0.008545
38.207	0.031586	-0.084839	0.064392	0.00351	0.025635	-0.016327	-0.19211	-0.01358	0.11627	-0.042725	-0.009766	-0.002594	-0.093689	0.13779	0.00061	-0.014801	-0.065918	0.29846	-0.12222	0.00885	0.022736	0.007477	-0.022888	-0.065765	-0.011902	0.006409	0.49454	-0.002899	0.23758	-0.11459	-0.002289	-0.004272
38.208	0.042267	-0.11322	0.040588	0.016937	0.026855	-0.029449	-0.16937	-0.019379	0.15747	-0.065155	-0.055695	0.005188	-0.01709	0.10559	0.008698	0.037994	-0.060272	0.26016	-0.33768	0.013123	0.028381	-0.010681	0.024719	-0.034485	-0.003662	0.010834	-0.091095	-0.007629	0.035095	-0.027161	-0.009003	-0.002289
38.209	0.050354	-0.033722	0.015411	-0.000153	0.06012	-0.0383	0.016327	-0.042267	0.1796	-0.061951	-0.03952	0.025177	0.061188	0.082092	0.028381	0.037231	-0.072327	0.2095	-0.012817	0.023041	0.053101	0.001526	0.028687	0.00351	-0.018616	-0.004272	-0.28259	-0.004883	-0.11704	0.038147	-0.001831	0
38.21	0.04715	-0.011139	-0.017395	-0.0177	0.029907	0.013275	0.18601	-0.031281	0.091705	0.001984	-0.015411	0.027924	-0.088196	0.19333	0.050812	0.012054	-0.066986	0.22232	0.23575	0.11231	0.071411	0.007477	0.042572	0.094299	-0.002136	-0.005493	-0.21881	-0.001221	-0.043945	0.041809	-0.002747	-0.00946
38.211	0.041046	0.017548	-0.035553	-0.016479	0.030212	-0.004883	0.14908	-0.014801	-0.015411	-0.003052	-0.053406	0.062714	-0.050812	0.36057	0.077057	0.024567	-0.081787	0.26032	-0.18021	0.18692	0.062103	0.001831	0.053406	0.074615	-0.015564	0.002136	-0.32044	-0.006256	0.094452	-0.069427	0.004883	0
38.212	0.037689	0.033722	-0.018005	-0.004578	0.008698	-0.019226	0.15198	0.014954	-0.040436	-0.023041	-0.032806	-0.006866	0.010986	0.1767	0.076904	0.0354	-0.095062	0.23254	-0.38574	0.10239	0.044403	-0.014191	0.046234	0.022278	-0.002899	0.010681	-0.26093	-0.004578	0.2536	-0.037079	-0.002136	-0.000916
38.213	0.037384	0.14648	0.003052	0.028229	-0.000916	0.012665	0.16632	0.023804	0.060272	-0.005188	-0.026855	-0.85678	0.30426	0.31601	0.090637	-0.016022	-0.088196	0.26947	-0.063934	0.001221	0.042267	-0.00061	0.047455	-0.0383	-0.001678	0.004272	-0.20706	-0.002747	0.22812	0.025787	-0.002289	0.005035
38.214	0.020905	0.11261	-0.039368	0.063629	0.015869	0.018311	0.14755	0.018158	0.1445	0.065002	-0.042725	0.44922	0.3508	0.52917	0.080566	-0.061646	-0.052948	0.19699	0.024414	-0.081177	0.038147	0.007172	-0.018158	0.022888	-0.001831	0.002594	0.20218	-0.001526	0.1767	0.03418	-0.000763	-0.006409
38.215	0.007172	0.11566	-0.084534	0.028839	-0.018158	0.038605	0.19974	-0.005188	0.10834	0.023193	-0.018158	0.51834	-0.29892	0.79285	-0.026703	-0.2095	-0.046539	0.18951	0.020599	-0.097351	0.032501	0.042572	0.000763	0.045929	0.041199	0.000763	0.68802	-0.00412	0.25269	0.03418	-0.00412	-0.006561
38.216	-0.000305	0.067291	0.025482	0.005646	-0.007019	0.063171	0.062103	-0.014648	0.004272	0.15091	-0.038757	0.12131	-0.2179	0.89203	-0.10712	-0.92148	-0.00885	0.14648	0.007935	-0.07309	0.045776	0.051727	-0.012817	0.017395	0.024109	-0.003052	0.75958	-0.006561	0.014038	0.051117	-0.003662	-0.005188
38.217	-0.008545	0.071869	0.15411	-0.025482	-0.039063	0.063934	-0.055847	-0.010986	-0.02655	0.061493	0.003967	0.027313	-0.10437	0.85312	-0.082245	0.75577	0.013733	0.085907	0.083466	-0.011139	0.058136	0.042725	-0.017548	0.035706	0.025787	-0.001984	0.73196	-0.005035	-0.49881	-0.011292	-0.00412	-0.009766
38.218	0.003967	0.093536	0.055237	-0.0354	0.023956	0.005951	-0.23438	-0.001678	0.12909	0.07431	-0.0354	0.018311	-0.068054	0.50018	-0.078735	0.30243	0.043945	0.032349	-0.11414	0.023804	0.065002	0.034943	-0.032806	0.040894	0.032043	0.005951	0.30212	-0.002136	-0.26703	-0.026093	-0.005951	-0.009918
38.219	0.029144	0.12405	-0.3154	-0.015869	0.036621	-0.032043	-0.28259	-0.004272	0.11505	-0.063324	-0.047607	0.005951	0.10056	-0.95062	-0.12329	0.15686	0.079651	0.009003	-0.12863	-0.027466	0.058594	0.004578	-0.049438	0.032654	0.030212	0.00473	-0.24857	-0.00824	-0.13412	-0.000305	-0.002441	-0.002136
38.22	0.037994	0.2005	-0.17883	0.006866	0.019836	-0.024109	-0.33325	0.003357	-0.050049	0.034485	-0.063019	-0.015717	0.03479	-1.4735	-0.024719	0.008698	0.05188	0.032196	0.13031	-0.025787	0.037079	0.014038	-0.022736	-0.00946	0.01297	0.001221	0.43549	-0.001984	-0.12833	0.016022	-0.003967	-0.008392
38.221	0.016174	0.20569	-0.000458	0.019531	0.025787	-0.009766	-0.24445	0.00473	0.00061	0.035858	-0.068817	0.030212	-0.015717	-1.3901	0.037994	0.68344	0.027161	0.070801	0.46188	-0.0354	0.055389	-0.000916	0.003052	-0.017853	0.012207	0.009918	0.37674	-0.005035	-0.1059	-0.007629	-0.009308	-0.008698
38.222	0.006256	0.22827	0.35568	0.015869	0.00061	0.014191	-0.18707	0.01236	0.17456	0.053406	-0.02594	-0.039063	0.010681	-0.65247	0.034332	0.046539	0.011749	0.13092	0.13931	-0.022278	0.065308	0.005035	-0.006409	0.0383	0.006866	-0.00061	0.002136	-0.00412	-0.10437	-0.022125	-0.00061	-0.012817
38.223	-0.00412	0.20569	0.46646	-0.007629	0.011902	0.03952	-0.29419	0.020294	0.24002	0.025635	-0.051422	-0.073242	-0.074615	-0.74249	0.011292	-0.094147	-0.0177	0.11322	0.013733	0.028839	0.068359	-0.021057	-0.038452	0.061035	0.015106	-0.002747	-0.13763	-0.004578	-0.022278	-0.057373	-0.001678	-0.009613
38.224	-0.001221	0.068054	0.099182	-0.007935	0.004578	0.002136	-0.29068	0.010681	0.13611	-0.010223	-0.04425	0.032043	-0.074158	-0.86319	-0.007477	-0.038757	-0.028534	0.032654	0.078278	0.01709	0.048523	-0.022888	-0.033722	0.051575	-0.002289	0.000763	-0.11566	-0.006866	0.050812	-0.029297	0.007172	-0.0177
38.225	-0.004883	0.07019	0.063019	-0.014954	-0.004883	0.00946	0.000763	-0.003662	-0.014648	-0.088043	-0.012054	-0.31509	-0.13718	-0.45029	0.022888	-0.034943	-0.028534	0.052948	0.01297	-0.033417	0.03891	-0.032043	-0.041656	0.045776	0.003967	0.003204	0.11383	-0.001678	0.052795	-0.039825	0.000305	-0.011749
38.226	-0.008087	0.093842	0.072784	-0.003204	-0.006714	-0.003357	0.1239	0.006409	-0.17242	-0.08606	-0.035858	0.071564	-0.215	-0.009613	-0.012054	0.007935	-0.013275	0.10254	-0.084381	-0.038147	0.045624	-0.043945	-0.087433	-0.001221	-0.002136	0.005646	-0.057678	-0.005646	0.035706	0.007019	-0.001831	-0.007019
38.227	-0.001373	0.057678	0.04425	-0.003204	0.014343	0.00061	0.020294	0.016785	-0.16419	-0.026245	-0.03418	0.13306	-0.13962	0.10269	0.00061	0.011597	0.007019	0.11932	0.063782	-0.037537	0.022583	-0.053558	-0.04303	-0.02182	0.009918	-0.008087	-0.40588	0.000458	-0.007629	-0.087738	0.000305	-0.00824
38.228	0.006866	-0.037537	0.032501	-0.002136	-0.00412	0.015564	-0.029144	0.00885	-0.063477	0.06134	-0.004883	0.059814	-0.05188	0.71289	0.018311	-0.066681	0.058899	0.112	0.39383	-0.059204	0.033569	-0.043335	0.000458	-0.04776	-0.000916	-0.001831	-0.19012	-0.000916	-0.059052	-0.12695	-0.003357	0.002747
38.229	-0.001068	-0.058441	-0.02243	-0.002747	0.014648	-0.003204	-0.016785	0.005646	-0.038147	0.066681	-0.042572	0.018921	-0.009613	0.69199	0.024414	-0.18585	0.19836	0.10574	0.66986	-0.068207	0.020142	-0.04303	0.006714	-0.042572	0.008545	0.00351	0.064697	-0.002747	-0.083008	-0.21454	-0.00061	0.003815
38.23	0.003967	-0.099335	-0.096436	0.003052	-0.00412	0.01236	-0.007324	0.007019	-0.078888	0.053253	-0.02655	-0.023041	0.072174	0.43228	0.019684	-0.18173	0.26733	0.11826	0.028534	-0.12558	0.005035	-0.033875	-0.040283	-0.081787	0.010071	-0.000458	0.15213	0.010071	-0.075226	-0.11673	-0.002899	-0.003662
38.231	0.006256	-0.048828	-0.079193	0.002289	0.004578	0.009918	-0.078583	-0.005493	-0.04364	0.026398	-0.054932	0.22995	0.024109	-0.15289	0.01297	0.12054	0.20142	0.021973	-0.011139	-0.082245	-0.007477	-0.025787	0.001526	-0.036163	0.026398	-0.005951	0.038452	-0.004578	-0.066681	0.014191	-0.003967	-0.007019
38.232	0.005493	-0.070801	-0.002289	-0.007477	-0.009308	0.002899	-0.080566	-0.021057	0.022583	-0.002899	-0.041351	0.0354	-0.19486	-0.046234	-0.019531	0.19394	0.094452	0.053711	0.083313	0.005188	0.002441	-0.027466	0.011139	-0.10346	0.009155	-0.005341	0.12421	-0.00351	0.044403	0.074158	-0.002594	-0.009308
38.233	0.001678	-0.067444	0.010986	-0.001068	-0.007477	0.006409	-0.029602	-0.000458	0.025787	0.007629	-0.021515	-0.000153	-0.14755	-0.1297	-0.037079	0.089264	-0.005798	0.031891	0.38269	0.021667	-0.010223	-0.006561	0.010681	-0.03418	0.019836	-0.00061	0.14664	-0.003052	0.13367	0.11993	-0.001068	-0.000916
38.234	-0.008087	-0.021057	-0.041351	0.019684	0.013275	-0.021667	-0.023041	-0.012665	0.043182	-0.003967	-0.057068	-0.046234	0.25131	-0.13626	-0.015411	-0.07309	-0.098724	0.02655	0.028229	0.14771	-0.001678	-0.000916	-0.00946	-0.03067	0.022278	0.009613	0.30426	-0.002136	0.15289	0.13657	-0.00473	-0.005188
